<svg width="18" height="21" viewBox="0 0 18 21" fill="none" xmlns="http://www.w3.org/2000/svg">
<path d="M15.3461 0.476257H2.6539C1.20405 0.476257 0.024292 1.79065 0.024292 3.40594L0.0242918 17.5466C0.0242918 19.1619 1.20405 20.4763 2.6539 20.4763H7.94816L7.94816 13.4059H5.84448L5.84448 9.89032H7.94816L7.94816 7.50751C7.94816 5.56888 9.36363 3.99188 11.1037 3.99188H14.2943L14.2943 7.50751H11.1037L11.1037 9.89032H14.2943L13.7684 13.4059H11.1037L11.1037 20.4763H15.3461C16.796 20.4763 17.9757 19.1619 17.9757 17.5466L17.9757 3.40594C17.9757 1.79065 16.796 0.476257 15.3461 0.476257Z" fill="black"/>
</svg>
