<svg width="19" height="20" viewBox="0 0 19 20" fill="none" xmlns="http://www.w3.org/2000/svg">
<path d="M9.5 0.805801C4.54092 0.805801 0.524292 5.16748 0.524292 10.5469C0.524292 14.8515 3.09583 18.502 6.66143 19.789C7.11022 19.8807 7.27478 19.5792 7.27478 19.3206C7.27478 19.0893 7.2673 18.4764 7.26356 17.6643C4.76681 18.2517 4.24024 16.3575 4.24024 16.3575C3.83184 15.2332 3.24169 14.9325 3.24169 14.9325C2.42864 14.3286 3.30452 14.341 3.30452 14.341C4.20583 14.4088 4.6793 15.3447 4.6793 15.3447C5.47963 16.8341 6.78036 16.4037 7.29348 16.1551C7.37426 15.5248 7.60538 15.0961 7.86194 14.8524C5.86858 14.6087 3.7735 13.771 3.7735 10.0388C3.7735 8.97568 4.12131 8.10665 4.69725 7.42514C4.59627 7.17897 4.29334 6.1885 4.77579 4.84696C4.77579 4.84696 5.5275 4.58592 7.24411 5.84568C7.96217 5.62925 8.7251 5.52186 9.48804 5.5169C10.251 5.52186 11.0139 5.62925 11.732 5.84568C13.4374 4.58592 14.1891 4.84696 14.1891 4.84696C14.6715 6.1885 14.3686 7.17897 14.2788 7.42514C14.851 8.10665 15.1988 8.97568 15.1988 10.0388C15.1988 13.781 13.1008 14.6046 11.1037 14.8441C11.4178 15.1365 11.7095 15.7338 11.7095 16.6466C11.7095 17.9502 11.6983 18.9976 11.6983 19.314C11.6983 19.5693 11.8554 19.8741 12.3154 19.7766C15.9064 18.4978 18.4757 14.8449 18.4757 10.5469C18.4757 5.16748 14.4568 0.805801 9.5 0.805801Z" fill="#212121"/>
</svg>
