<svg width="18" height="21" viewBox="0 0 18 21" fill="none" xmlns="http://www.w3.org/2000/svg">
<path d="M12.3659 0.891235H5.63411C2.53637 0.891235 0.024292 3.68999 0.0242919 7.14124L0.0242919 14.6412C0.0242918 18.0925 2.53637 20.8912 5.63411 20.8912H12.3659C15.4636 20.8912 17.9757 18.0925 17.9757 14.6412L17.9757 7.14124C17.9757 3.68999 15.4636 0.891235 12.3659 0.891235ZM16.2928 14.6412C16.2928 17.0537 14.5313 19.0162 12.3659 19.0162H5.63411C3.46872 19.0162 1.70724 17.0537 1.70724 14.6412L1.70724 7.14124C1.70724 4.72874 3.46872 2.76624 5.63411 2.76624H12.3659C14.5313 2.76624 16.2928 4.72874 16.2928 7.14124L16.2928 14.6412Z" fill="black"/>
<path d="M9 5.89124C6.52158 5.89124 4.51215 8.12999 4.51215 10.8912C4.51215 13.6525 6.52158 15.8912 9 15.8912C11.4784 15.8912 13.4879 13.6525 13.4879 10.8912C13.4879 8.12999 11.4784 5.89124 9 5.89124ZM9 14.0162C7.45394 14.0162 6.19509 12.6137 6.19509 10.8912C6.19509 9.16749 7.45394 7.76624 9 7.76624C10.5461 7.76624 11.8049 9.16749 11.8049 10.8912C11.8049 12.6137 10.5461 14.0162 9 14.0162Z" fill="black"/>
<path d="M13.8244 6.18247C14.1547 6.18247 14.4225 5.88418 14.4225 5.51622C14.4225 5.14826 14.1547 4.84998 13.8244 4.84998C13.4942 4.84998 13.2264 5.14826 13.2264 5.51622C13.2264 5.88418 13.4942 6.18247 13.8244 6.18247Z" fill="black"/>
</svg>
