<svg width="28" height="21" viewBox="0 0 28 21" fill="none" xmlns="http://www.w3.org/2000/svg">
<g id="Design">
<g id="Group">
<path id="Vector" d="M25.6016 0H2.57125C2.11899 0.000560118 1.68541 0.17067 1.36561 0.473027C1.04581 0.775384 0.865888 1.18531 0.865295 1.6129V15.3226C0.865888 15.7502 1.04581 16.1601 1.36561 16.4625C1.68541 16.7648 2.11899 16.9349 2.57125 16.9355H11.3623L10.7934 18.5484H9.39507C9.28196 18.5484 9.17348 18.5909 9.0935 18.6665C9.01352 18.7421 8.96858 18.8447 8.96858 18.9516V19.7581H5.13018C5.01707 19.7581 4.90859 19.8005 4.82861 19.8762C4.74863 19.9518 4.70369 20.0543 4.70369 20.1613C4.70369 20.2682 4.74863 20.3708 4.82861 20.4464C4.90859 20.522 5.01707 20.5645 5.13018 20.5645H23.8957C24.0088 20.5645 24.1173 20.522 24.1973 20.4464C24.2772 20.3708 24.3222 20.2682 24.3222 20.1613C24.3222 20.0543 24.2772 19.9518 24.1973 19.8762C24.1173 19.8005 24.0088 19.7581 23.8957 19.7581H19.2043V18.9516C19.2043 18.8447 19.1594 18.7421 19.0794 18.6665C18.9994 18.5909 18.8909 18.5484 18.7778 18.5484H17.3795L16.8106 16.9355H25.6016C26.0539 16.9349 26.4875 16.7648 26.8073 16.4625C27.1271 16.1601 27.307 15.7502 27.3076 15.3226V1.6129C27.307 1.18531 27.1271 0.775384 26.8073 0.473027C26.4875 0.17067 26.0539 0.000560118 25.6016 0ZM18.3513 19.3548V19.7581H9.82156V19.3548H18.3513ZM11.6928 18.5484L12.2616 16.9355H15.9113L16.4801 18.5484H11.6928ZM26.4546 15.3226C26.4543 15.5364 26.3644 15.7413 26.2045 15.8925C26.0446 16.0437 25.8278 16.1288 25.6016 16.129H2.57125C2.34512 16.1288 2.12833 16.0437 1.96843 15.8925C1.80853 15.7413 1.71857 15.5364 1.71827 15.3226V14.5161H26.4546V15.3226ZM8.09748 10.0806L7.93755 13.7097H7.44069L7.28075 10.0806H8.09748ZM7.3394 9.27419L7.62408 7.66129H7.75416L8.03884 9.27419H7.3394ZM7.68912 6.85484C7.22691 6.85484 6.83614 6.30091 6.83614 5.64516C6.83614 5.23135 7.28289 4.63004 7.68805 4.20615C8.05323 4.58921 8.54209 5.20161 8.54209 5.64516C8.54209 6.30091 8.15132 6.85484 7.68912 6.85484ZM12.3304 6.04839L12.3805 6.14365V6.45161H10.6745V6.14365L10.7247 6.04839H12.3304ZM11.1511 5.24194L11.5275 4.53075L11.9039 5.24194H11.1511ZM12.3805 7.25806V13.6593C12.3807 13.6761 12.3819 13.693 12.3842 13.7097H10.6708C10.6731 13.693 10.6744 13.6761 10.6745 13.6593V7.25806H12.3805ZM16.2189 5.64516H17.4984V6.45161H17.0719C16.9588 6.45161 16.8503 6.4941 16.7703 6.56971C16.6903 6.64533 16.6454 6.7479 16.6454 6.85484C16.6454 6.96178 16.6903 7.06434 16.7703 7.13996C16.8503 7.21558 16.9588 7.25806 17.0719 7.25806H17.4984V8.06452H16.2189C16.1058 8.06452 15.9973 8.107 15.9173 8.18262C15.8373 8.25824 15.7924 8.3608 15.7924 8.46774C15.7924 8.57468 15.8373 8.67725 15.9173 8.75287C15.9973 8.82849 16.1058 8.87097 16.2189 8.87097H17.4984V9.67742H17.0719C16.9588 9.67742 16.8503 9.7199 16.7703 9.79552C16.6903 9.87114 16.6454 9.9737 16.6454 10.0806C16.6454 10.1876 16.6903 10.2901 16.7703 10.3658C16.8503 10.4414 16.9588 10.4839 17.0719 10.4839H17.4984V11.2903H16.2189C16.1058 11.2903 15.9973 11.3328 15.9173 11.4084C15.8373 11.484 15.7924 11.5866 15.7924 11.6935C15.7924 11.8005 15.8373 11.9031 15.9173 11.9787C15.9973 12.0543 16.1058 12.0968 16.2189 12.0968H17.4984V13.7097H14.5129V4.03226H17.4984V4.83871H16.2189C16.1058 4.83871 15.9973 4.88119 15.9173 4.95681C15.8373 5.03243 15.7924 5.13499 15.7924 5.24194C15.7924 5.34888 15.8373 5.45144 15.9173 5.52706C15.9973 5.60268 16.1058 5.64516 16.2189 5.64516ZM21.3368 10.4839V13.6593C21.3369 13.6761 21.3382 13.693 21.3405 13.7097H19.6271C19.6294 13.693 19.6306 13.6761 19.6308 13.6593V10.4839H21.3368ZM19.6308 9.67742V9.36946L20.4838 7.75655L21.3368 9.36946V9.67742H19.6308ZM26.4546 13.7097H22.186C22.1883 13.693 22.1896 13.6761 22.1897 13.6593V9.27419C22.1897 9.21159 22.1744 9.14984 22.145 9.09375L20.8655 6.6744C20.83 6.60743 20.7755 6.55113 20.7081 6.51178C20.6407 6.47243 20.563 6.4516 20.4838 6.4516C20.4046 6.4516 20.3269 6.47243 20.2595 6.51178C20.1921 6.55113 20.1376 6.60743 20.1021 6.6744L18.8226 9.09375C18.7932 9.14984 18.7779 9.21159 18.7778 9.27419V13.6593C18.778 13.6761 18.7792 13.693 18.7816 13.7097H18.3513V3.62903C18.3513 3.52209 18.3064 3.41953 18.2264 3.34391C18.1464 3.26829 18.038 3.22581 17.9248 3.22581H14.0864C13.9733 3.22581 13.8649 3.26829 13.7849 3.34391C13.7049 3.41953 13.66 3.52209 13.66 3.62903V13.7097H13.2297C13.2321 13.693 13.2333 13.6761 13.2335 13.6593V6.04839C13.2334 5.98578 13.2181 5.92404 13.1887 5.86794L11.9092 3.44859C11.8737 3.38163 11.8192 3.32532 11.7518 3.28598C11.6844 3.24663 11.6067 3.22579 11.5275 3.22579C11.4483 3.22579 11.3706 3.24663 11.3032 3.28598C11.2358 3.32532 11.1813 3.38163 11.1458 3.44859L9.86634 5.86794C9.83695 5.92404 9.82162 5.98578 9.82156 6.04839V13.6593C9.82172 13.6761 9.82297 13.693 9.82529 13.7097H8.79106L8.96805 9.69405C8.96858 9.68498 8.96805 9.67591 8.96805 9.66633V9.65423C8.96706 9.64004 8.96528 9.62591 8.96272 9.6119V9.61089L8.56822 7.37248C9.06348 7.01915 9.39507 6.37702 9.39507 5.64516C9.39507 4.60887 8.12467 3.46119 7.97966 3.33367C7.90064 3.26442 7.79687 3.22594 7.68912 3.22594C7.58137 3.22594 7.47759 3.26442 7.39857 3.33367C7.25356 3.46119 5.98316 4.60887 5.98316 5.64516C5.98316 6.37702 6.31476 7.01915 6.81002 7.37248L6.41551 9.61089V9.6119C6.41295 9.62591 6.41117 9.64004 6.41018 9.65423V9.66633C6.41018 9.67591 6.40965 9.68498 6.41018 9.69405L6.58718 13.7097H1.71827V1.6129C1.71857 1.3991 1.80853 1.19414 1.96843 1.04297C2.12833 0.891787 2.34512 0.806732 2.57125 0.806452H25.6016C25.8278 0.806732 26.0446 0.891787 26.2045 1.04297C26.3644 1.19414 26.4543 1.3991 26.4546 1.6129V13.7097Z" fill="black"/>
<path id="Vector_2" d="M5.55674 14.9193H2.99781C2.8847 14.9193 2.77622 14.9618 2.69624 15.0374C2.61625 15.113 2.57132 15.2156 2.57132 15.3225C2.57132 15.4295 2.61625 15.532 2.69624 15.6077C2.77622 15.6833 2.8847 15.7258 2.99781 15.7258H5.55674C5.66985 15.7258 5.77833 15.6833 5.85831 15.6077C5.9383 15.532 5.98323 15.4295 5.98323 15.3225C5.98323 15.2156 5.9383 15.113 5.85831 15.0374C5.77833 14.9618 5.66985 14.9193 5.55674 14.9193Z" fill="black"/>
<path id="Vector_3" d="M7.26283 14.9193H6.83634C6.72323 14.9193 6.61475 14.9618 6.53477 15.0374C6.45478 15.113 6.40985 15.2156 6.40985 15.3225C6.40985 15.4295 6.45478 15.532 6.53477 15.6077C6.61475 15.6833 6.72323 15.7258 6.83634 15.7258H7.26283C7.37594 15.7258 7.48442 15.6833 7.5644 15.6077C7.64438 15.532 7.68932 15.4295 7.68932 15.3225C7.68932 15.2156 7.64438 15.113 7.5644 15.0374C7.48442 14.9618 7.37594 14.9193 7.26283 14.9193Z" fill="black"/>
<path id="Vector_4" d="M11.5276 7.66125C11.4145 7.66125 11.306 7.70374 11.2261 7.77936C11.1461 7.85498 11.1011 7.95754 11.1011 8.06448V12.5C11.1011 12.6069 11.1461 12.7095 11.2261 12.7851C11.306 12.8607 11.4145 12.9032 11.5276 12.9032C11.6407 12.9032 11.7492 12.8607 11.8292 12.7851C11.9092 12.7095 11.9541 12.6069 11.9541 12.5V8.06448C11.9541 7.95754 11.9092 7.85498 11.8292 7.77936C11.7492 7.70374 11.6407 7.66125 11.5276 7.66125Z" fill="black"/>
<path id="Vector_5" d="M20.4841 10.8871C20.371 10.8871 20.2625 10.9296 20.1825 11.0052C20.1026 11.0808 20.0576 11.1834 20.0576 11.2903V12.5C20.0576 12.6069 20.1026 12.7095 20.1825 12.7851C20.2625 12.8607 20.371 12.9032 20.4841 12.9032C20.5972 12.9032 20.7057 12.8607 20.7857 12.7851C20.8657 12.7095 20.9106 12.6069 20.9106 12.5V11.2903C20.9106 11.1834 20.8657 11.0808 20.7857 11.0052C20.7057 10.9296 20.5972 10.8871 20.4841 10.8871Z" fill="black"/>
<path id="Vector_6" d="M2.99781 2.41937H6.40972C6.52283 2.41937 6.63131 2.37688 6.71129 2.30126C6.79127 2.22564 6.83621 2.12308 6.83621 2.01614C6.83621 1.9092 6.79127 1.80664 6.71129 1.73102C6.63131 1.6554 6.52283 1.61292 6.40972 1.61292H2.99781C2.8847 1.61292 2.77622 1.6554 2.69624 1.73102C2.61625 1.80664 2.57132 1.9092 2.57132 2.01614C2.57132 2.12308 2.61625 2.22564 2.69624 2.30126C2.77622 2.37688 2.8847 2.41937 2.99781 2.41937Z" fill="black"/>
<path id="Vector_7" d="M2.99781 3.62908H3.85079C3.9639 3.62908 4.07238 3.5866 4.15236 3.51098C4.23234 3.43536 4.27727 3.3328 4.27727 3.22586C4.27727 3.11892 4.23234 3.01635 4.15236 2.94073C4.07238 2.86511 3.9639 2.82263 3.85079 2.82263H2.99781C2.8847 2.82263 2.77622 2.86511 2.69624 2.94073C2.61625 3.01635 2.57132 3.11892 2.57132 3.22586C2.57132 3.3328 2.61625 3.43536 2.69624 3.51098C2.77622 3.5866 2.8847 3.62908 2.99781 3.62908Z" fill="black"/>
<path id="Vector_8" d="M23.4694 12.9033H25.1754C25.2885 12.9033 25.3969 12.8608 25.4769 12.7852C25.5569 12.7095 25.6018 12.607 25.6018 12.5C25.6018 12.3931 25.5569 12.2905 25.4769 12.2149C25.3969 12.1393 25.2885 12.0968 25.1754 12.0968H23.4694C23.3563 12.0968 23.2478 12.1393 23.1678 12.2149C23.0878 12.2905 23.0429 12.3931 23.0429 12.5C23.0429 12.607 23.0878 12.7095 23.1678 12.7852C23.2478 12.8608 23.3563 12.9033 23.4694 12.9033Z" fill="black"/>
<path id="Vector_9" d="M24.749 11.6935H25.1755C25.2886 11.6935 25.3971 11.6511 25.4771 11.5754C25.557 11.4998 25.602 11.3973 25.602 11.2903C25.602 11.1834 25.557 11.0808 25.4771 11.0052C25.3971 10.9296 25.2886 10.8871 25.1755 10.8871H24.749C24.6359 10.8871 24.5274 10.9296 24.4474 11.0052C24.3674 11.0808 24.3225 11.1834 24.3225 11.2903C24.3225 11.3973 24.3674 11.4998 24.4474 11.5754C24.5274 11.6511 24.6359 11.6935 24.749 11.6935Z" fill="black"/>
</g>
</g>
</svg>
