<svg width="26" height="24" viewBox="0 0 26 24" fill="none" xmlns="http://www.w3.org/2000/svg">
<g id="web development">
<g id="Group">
<g id="Group_2">
<path id="Vector" d="M0 0V20.5205H8.18971V21.9877H6.69283V23.4526H18.8233V21.9877H17.3265V20.5205H25.5162V0H0ZM15.8313 21.9877H9.6849V20.5205H15.8313V21.9877H15.8313ZM24.0211 19.0556H1.49514V16.1222H24.021V19.0556H24.0211ZM24.0211 14.6573H1.49514V1.46494H24.021V14.6573H24.0211Z" fill="black"/>
</g>
</g>
<g id="Group_3">
<g id="Group_4">
<path id="Vector_2" d="M10.1637 5.4134L9.10644 4.37756L5.34683 8.06111L9.10644 11.7446L10.1637 10.7088L7.46129 8.06111L10.1637 5.4134Z" fill="black"/>
</g>
</g>
<g id="Group_5">
<g id="Group_6">
<path id="Vector_3" d="M16.4097 4.37756L15.3525 5.4134L18.0549 8.06111L15.3525 10.7088L16.4097 11.7446L20.1693 8.06111L16.4097 4.37756Z" fill="black"/>
</g>
</g>
<g id="Group_7">
<g id="Group_8">
<path id="Vector_4" d="M12.8927 3.64399L11.157 12.193L12.6235 12.4788L14.3591 3.9298L12.8927 3.64399Z" fill="black"/>
</g>
</g>
</g>
</svg>
