<svg width="46" height="66" viewBox="0 0 46 66" fill="none" xmlns="http://www.w3.org/2000/svg">
<path d="M22.9719 65.7466L4.18634 60.5398L0 13.6601H46.0001L41.8093 60.5328L22.9719 65.7466Z" fill="#4353AD"/>
<path d="M38.2217 57.548L41.8025 17.4934H23V61.7612L38.2217 57.548Z" fill="#485FB5"/>
<path d="M22.9999 49.8127L22.9746 49.8192L16.5612 48.0902L16.1512 43.5047H10.3703L11.1771 52.5325L22.9734 55.802L22.9999 55.7947V49.8127ZM8.55981 23.243L9.08328 28.9925H22.9999V23.243H8.55981ZM9.59695 34.8801L10.113 40.6298H22.9999V34.8801H9.59695Z" fill="#EDEDED"/>
<path d="M27.5654 0.920002H34.5403V3.45222H30.4824V3.9589H34.5403V9.78296H27.5654V7.12387H31.6236V6.61759H27.5656V0.920002H27.5654ZM19.1956 0.920002H26.1703V3.45222H22.1124V3.9589H26.1703V9.78296H19.1958V7.12387H23.2538V6.61759H19.1955V0.920002H19.1956ZM10.8259 0.920002H17.8005V3.83203H13.7427V6.74446H17.8009V9.65649H10.8259V0.920002Z" fill="#100F0D"/>
<path d="M36.3662 34.8803L37.4057 23.2432H22.9802V28.9926H31.0947L30.5708 34.8803H22.9802V40.63H30.0715L29.4026 48.087L22.98 49.8176V55.7993L34.7856 52.5326L34.872 51.5614L36.2257 36.4242L36.3662 34.8803Z" fill="white"/>
</svg>
