<svg width="120" height="60" viewBox="0 0 120 60" fill="none" xmlns="http://www.w3.org/2000/svg">
<g id="java-ar21 1">
<path id="Vector" d="M17.956 42.6083C17.956 42.6083 16.189 43.6804 19.186 43.9876C22.786 44.4464 24.716 44.3706 28.71 43.6046C28.71 43.6046 29.785 44.2928 31.245 44.8314C22.258 48.6611 10.891 44.602 17.957 42.6103L17.956 42.6083ZM16.804 37.6296C16.804 37.6296 14.884 39.0857 17.879 39.3919C21.796 39.7749 24.879 39.8507 30.169 38.7795C30.169 38.7795 30.859 39.5455 32.012 39.9285C21.182 43.1459 9.04601 40.2337 16.804 37.6296ZM38.004 46.3623C38.004 46.3623 39.31 47.4344 36.544 48.2771C31.398 49.8091 14.961 50.2688 10.352 48.2771C8.739 47.589 11.812 46.5817 12.81 46.4391C13.81 46.2097 14.346 46.2097 14.346 46.2097C12.58 44.983 2.594 48.7379 9.276 49.8001C27.633 52.7871 42.764 48.4976 38.002 46.3533L38.004 46.3623ZM18.8 32.4205C18.8 32.4205 10.428 34.4122 15.804 35.1014C18.108 35.4076 22.64 35.3308 26.864 35.0246C30.32 34.7184 33.777 34.105 33.777 34.105C33.777 34.105 32.547 34.6416 31.703 35.1772C23.177 37.3982 6.81701 36.4039 11.503 34.105C15.497 32.1902 18.8 32.4096 18.8 32.4096V32.4205ZM33.778 40.7702C42.38 36.3271 38.386 32.0376 35.621 32.5741C34.931 32.7277 34.621 32.8803 34.621 32.8803C34.621 32.8803 34.851 32.4215 35.389 32.268C40.842 30.3531 45.144 38.0126 33.622 41.0006C33.622 41.0006 33.699 40.9238 33.776 40.7712L33.778 40.7702ZM19.646 52.8729C27.941 53.4094 40.616 52.5667 40.922 48.6601C40.922 48.6601 40.308 50.192 34.086 51.341C27.02 52.6435 18.264 52.4899 13.116 51.6471C13.116 51.6471 14.191 52.5657 19.646 52.8729Z" fill="#4E7896"/>
<path id="Vector_2" d="M28.555 7.14136C28.555 7.14136 33.317 11.9685 24.023 19.245C16.573 25.1432 22.323 28.5142 24.023 32.344C19.645 28.4374 16.496 24.9906 18.646 21.7722C21.796 17.0229 30.475 14.7251 28.555 7.14136ZM26.097 29.1266C28.324 31.6548 25.482 33.9537 25.482 33.9537C25.482 33.9537 31.166 31.0415 28.554 27.4411C26.174 23.9943 24.33 22.3088 34.314 16.5632C34.314 16.5632 18.568 20.4697 26.096 29.1256L26.097 29.1266Z" fill="#F58219"/>
<path id="Vector_3" d="M75.318 38.2201V26.5742C75.318 23.6022 73.65 21.5836 69.48 21.5836C67.097 21.5836 65.07 22.178 63.284 22.8901L63.88 25.0294C65.19 24.5536 66.86 24.0789 68.646 24.0789C70.91 24.0789 71.982 25.0294 71.982 26.9313V28.4771H70.8C65.08 28.4771 62.46 30.6164 62.46 34.0622C62.46 36.9146 64.247 38.5781 67.464 38.5781C69.49 38.5781 71.039 37.6277 72.468 36.4389L72.706 38.2211H75.326L75.318 38.2201ZM71.98 34.4183C70.79 35.4874 69.478 36.0818 68.286 36.0818C66.736 36.0818 65.784 35.1313 65.784 33.4688C65.784 31.8062 66.737 30.6164 70.55 30.6164H71.98V34.4193V34.4183ZM86.516 38.2211H82.346L77.343 21.9416H80.918L84.016 31.9249L84.731 34.897C86.281 30.6184 87.471 26.2222 87.948 21.9446H91.522C90.569 27.2923 88.902 33.1147 86.518 38.2241L86.516 38.2211ZM105.818 38.2211V26.5742C105.818 23.6022 104.15 21.5836 99.978 21.5836C97.595 21.5836 95.57 22.178 93.782 22.8901L94.259 25.0294C95.689 24.5536 97.357 24.0789 99.144 24.0789C101.408 24.0789 102.48 25.0294 102.48 26.9313V28.4771H101.29C95.57 28.4771 92.95 30.6164 92.95 34.0622C92.95 36.9146 94.618 38.5781 97.835 38.5781C99.98 38.5781 101.529 37.6277 102.958 36.4389L103.196 38.2211H105.816H105.818ZM102.482 34.4183C101.292 35.4874 99.98 36.0818 98.788 36.0818C97.238 36.0818 96.286 35.1313 96.286 33.4688C96.286 31.8062 97.239 30.6164 101.052 30.6164H102.482V34.4193V34.4183ZM58.754 40.9538C57.801 42.38 56.371 43.4491 54.584 44.0435L53.034 42.1426C54.226 41.4295 55.417 40.3604 55.894 39.4099C56.371 38.5781 56.49 37.3893 56.49 34.6566V16.1172H60.065V34.4183C60.065 38.1024 59.706 39.5276 58.754 40.9538Z" fill="#4E7896"/>
</g>
</svg>
