<svg width="226" height="51" viewBox="0 0 226 51" fill="none" xmlns="http://www.w3.org/2000/svg">
<g id="postgresql-horizontal 1">
<path id="Vector" d="M60.7997 25.6639H52.6043V15.7444H61.2446C64.4072 15.7444 65.9885 17.4232 65.9885 20.7815C65.9885 24.037 64.2582 25.6656 60.7997 25.6656M66.6898 15.6288C65.5598 14.4184 63.9954 13.8132 61.9763 13.8132L50.2398 13.8914V37.6234H52.6043L52.5831 27.5203H61.3166C63.506 27.5203 65.2307 26.9151 66.4885 25.7047C67.7463 24.4943 68.3756 22.8147 68.3756 20.6668C68.3756 18.5188 67.8141 16.8401 66.6912 15.6288H66.6898ZM81.9956 32.6399C81.7695 33.4162 81.3834 34.1108 80.8734 34.6586C79.814 35.903 78.1981 36.5244 76.0243 36.5244C74.0609 36.5244 72.5552 35.9294 71.5043 34.7105C70.4534 33.4916 69.9272 31.8825 69.9272 29.8544C69.9272 28.7987 70.0649 27.8612 70.3397 27.0435C70.6144 26.2258 71.0134 25.5356 71.5361 24.9729C72.6237 23.7803 74.1195 23.1836 76.025 23.1836C80.2455 23.1836 82.3565 25.4072 82.3565 29.8544C82.3565 30.911 82.2365 31.8392 82.0034 32.6399M82.4321 23.8849C80.9913 22.3039 78.8585 21.5049 76.0321 21.5049C73.3624 21.5049 71.2988 22.3124 69.8439 23.9274C68.5303 25.3894 67.8664 27.3614 67.8664 29.8451C67.8664 32.3101 68.5444 34.2991 69.9004 35.8121C70.649 36.6281 71.5212 37.2197 72.5178 37.5852C73.5143 37.9507 74.6831 38.1334 76.025 38.1334C78.8359 38.1334 80.9687 37.3514 82.4462 35.7874C83.7598 34.3594 84.4237 32.3874 84.4237 29.8442C84.4237 27.2942 83.7598 25.3052 82.4321 23.8755V23.8849ZM100.313 33.3258C100.313 36.5201 97.935 38.1173 93.1798 38.1173C91.7263 38.1173 90.5017 38.0068 89.5073 37.7841C88.5129 37.5614 87.7042 37.1933 87.0835 36.6808C86.6043 36.2907 86.2118 35.7654 85.94 35.1508C85.6575 34.5218 85.4739 33.7313 85.3892 32.7708L87.6018 32.7453C87.6018 34.0033 87.9889 34.9281 88.7636 35.5231C89.5949 36.2371 91.066 36.5941 93.1798 36.5941C96.5034 36.5941 98.1659 35.5911 98.1659 33.5868C98.1659 32.4138 97.6009 31.608 96.4935 31.1643C96.2675 31.0793 94.9235 30.854 92.4679 30.4894C90.0123 30.1247 88.4705 29.7966 87.8646 29.5076C86.5524 28.8786 85.8962 27.7481 85.8962 26.1178C85.8962 24.5198 86.4824 23.3298 87.6619 22.5495C88.241 22.2265 88.9649 21.9766 89.8343 21.7973C90.7037 21.6179 91.7101 21.5295 92.8542 21.5295C97.4321 21.5295 99.7211 23.2584 99.7211 26.7145H97.6165C97.6165 24.2835 96.0062 23.0595 92.7892 23.0595C91.1522 23.0595 89.9311 23.3145 89.1266 23.799C88.3222 24.2835 87.9204 25.0485 87.9204 26.0685C87.9204 27.0205 88.4642 27.709 89.5504 28.134C90.186 28.355 91.6465 28.61 93.9334 28.899C95.9801 29.12 97.3848 29.4345 98.1469 29.834C99.6017 30.514 100.328 31.67 100.328 33.2995L100.313 33.3258ZM109.004 37.6549L108.104 37.8079L107.542 37.8589C106.101 37.8589 105.07 37.6081 104.425 37.1049C103.781 36.6017 103.47 35.722 103.47 34.4699V23.6282H100.853V22.0353H103.456L103.478 16.9183H105.495V22.0353H109.008V23.6537L105.495 23.6282V34.1656C105.495 34.9502 105.668 35.4916 106.014 35.7806C106.36 36.0696 106.977 36.2277 107.867 36.2277C107.994 36.2447 108.135 36.2396 108.291 36.2107C108.526 36.1602 108.76 36.0961 108.99 36.0186L109.011 37.6336L109.004 37.6549ZM122.956 34.0594C122.405 34.6034 121.778 35.0182 121.072 35.3089C120.367 35.5996 119.555 35.7339 118.639 35.7339C114.42 35.7339 112.311 33.6369 112.311 29.4439C112.311 27.4914 112.85 25.9631 113.93 24.859C115.01 23.7548 116.529 23.2032 118.491 23.2032C120.466 23.2032 121.966 23.7599 122.988 24.8717C124.011 25.9835 124.523 27.4744 124.523 29.3427C124.523 31.3802 124.001 32.951 122.957 34.0543M126.541 22.0395H124.524L124.503 24.717C123.613 23.629 122.977 22.9431 122.596 22.6541C121.466 21.9061 120.005 21.5338 118.212 21.5338C115.586 21.5338 113.581 22.2563 112.198 23.6996C110.884 25.0256 110.229 26.944 110.229 29.4575C110.229 30.6985 110.395 31.8052 110.727 32.7725C111.059 33.7398 111.543 34.577 112.179 35.2562C113.565 36.6485 115.523 37.3455 118.055 37.3455C121.095 37.3455 123.251 36.345 124.525 34.3433V37.1143C124.525 38.8823 124.062 40.2491 123.138 41.2181C122.213 42.1871 120.692 42.6631 118.574 42.6631C116.582 42.6631 115.164 42.3231 114.317 41.6737C113.682 41.1662 113.244 40.2865 113.004 39.0344H110.927C111.153 40.7829 111.775 42.0477 112.763 42.828C113.922 43.7273 115.871 44.1769 118.625 44.1769C123.894 44.1769 126.535 41.8199 126.535 37.1049V22.0463L126.541 22.0395ZM137.452 23.6146C136.845 23.4956 136.282 23.4446 135.76 23.4446C132.444 23.4446 130.787 25.6333 130.787 30.0091V37.62H128.791L128.77 22.0463L130.788 22.0701V24.8496H130.894C131.233 23.7548 131.769 22.9244 132.502 22.3591C133.306 21.8117 134.505 21.538 136.1 21.538H137.454V23.629L137.452 23.6146ZM139.329 28.8489C139.583 27.0792 140.155 25.709 141.043 24.7383C141.622 24.1773 142.279 23.7548 143.012 23.4743C143.745 23.1938 144.566 23.0527 145.49 23.0527C147.282 23.0527 148.738 23.6443 149.882 24.8275C151.027 26.0107 151.586 27.352 151.586 28.848L139.329 28.8489ZM151.782 24.0438C151.076 23.1913 150.2 22.5614 149.155 22.1517C148.11 21.742 146.895 21.538 145.483 21.538C142.869 21.538 140.842 22.269 139.4 23.731C137.958 25.193 137.239 27.182 137.239 29.6997C137.239 32.2174 137.931 34.2047 139.316 35.6922C140.813 37.3242 142.917 38.1402 145.649 38.1402C146.737 38.1402 147.742 37.9915 148.667 37.6957C149.592 37.3999 150.401 36.98 151.092 36.4377C152.307 35.3879 153.075 34.0917 153.402 32.5532H151.221C150.472 35.2162 148.61 36.5482 145.632 36.5482C143.528 36.5482 141.912 35.8971 140.783 34.5949C139.809 33.4788 139.323 32.033 139.323 30.2565H153.704C153.704 27.6147 153.068 25.5432 151.776 24.0515L151.782 24.0438Z" fill="#231F20"/>
<path id="Vector_2" d="M175.023 31.2595C175.023 35.8835 171.925 38.1955 165.727 38.1955C162.014 38.1955 159.304 37.3991 157.596 35.8155C156.198 34.5065 155.5 32.5107 155.5 29.8247H157.994C157.994 34.141 160.572 36.2992 165.726 36.2992C168.198 36.2992 169.985 35.8572 171.094 34.9749C172.026 34.1946 172.492 32.9714 172.492 31.308C172.492 29.6607 171.857 28.5064 170.586 27.8434C169.865 27.4864 168.114 27.0359 165.31 26.4936C161.793 25.8476 159.513 25.2033 158.468 24.5581C156.956 23.6061 156.208 21.9937 156.208 19.7182C156.208 17.5958 156.843 16.0165 158.136 14.9803C159.52 13.843 161.893 13.2735 165.253 13.2735C171.327 13.2735 174.364 15.7011 174.364 20.5563H171.848C171.848 16.9183 169.593 15.101 165.083 15.101C162.821 15.101 161.167 15.4665 160.121 16.206C159.131 16.988 158.638 18.1355 158.638 19.6485C158.638 21.2295 159.273 22.343 160.545 22.989C161.223 23.363 163.214 23.8815 166.52 24.5445C169.627 25.1055 171.725 25.76 172.805 26.4995C174.288 27.4175 175.03 29.007 175.03 31.2595H175.023ZM195.292 33.6191C194.36 34.5175 193.306 35.1916 192.133 35.6421C190.96 36.0926 189.645 36.3162 188.189 36.3162C185.22 36.3162 182.822 35.3531 180.99 33.4279C179.158 31.5026 178.245 28.9365 178.245 25.7294C178.245 22.3872 179.152 19.7828 180.969 17.9162C182.785 16.0496 185.192 15.1172 188.189 15.1172C191.228 15.1172 193.617 16.093 195.356 18.0437C196.274 18.9957 196.952 20.1058 197.391 21.3783C197.831 22.6507 198.048 24.1017 198.048 25.7303C198.048 29.0555 197.128 31.6854 195.291 33.6182M196.617 35.1925C197.917 34.0892 198.879 32.753 199.501 31.1822C200.123 29.6114 200.434 27.7992 200.434 25.7439C200.434 22.0591 199.417 19.1139 197.383 16.8801C196.296 15.6578 194.982 14.7491 193.443 14.155C191.903 13.5608 190.144 13.2625 188.167 13.2625C184.325 13.2625 181.316 14.3845 179.127 16.6242C176.938 18.864 175.843 21.9044 175.843 25.7422C175.843 29.4771 176.947 32.4912 179.157 34.7828C181.367 37.0744 184.386 38.221 188.211 38.221C189.709 38.221 191.014 38.0995 192.129 37.8555C193.244 37.6116 194.191 37.2376 194.968 36.7335L198.653 39.808L200.193 38.1063L196.624 35.1933L196.617 35.1925ZM219.111 37.6209H202.058V13.8549L204.401 13.8039V35.6294H219.125L219.104 37.6133L219.111 37.6209Z" fill="#367FAF"/>
<g id="Vector_3">
<path d="M34.0674 33.632C34.3047 31.6175 34.2333 31.3217 35.7045 31.6481L36.0788 31.6821C37.2102 31.7348 38.6898 31.4968 39.5592 31.0845C41.4307 30.1988 42.5396 28.7198 40.6948 29.1083C36.4856 29.994 36.196 28.5388 36.196 28.5388C40.6404 21.811 42.4986 13.2702 40.8954 11.1792C36.5131 5.47827 28.9492 8.17447 28.815 8.24502L28.7747 8.25352C27.9428 8.07757 27.0119 7.97302 25.9667 7.95602C24.0619 7.92372 22.6169 8.46602 21.5201 9.31347C21.5201 9.31347 8.0124 3.63547 8.64097 16.4535C8.77515 19.1803 12.4724 37.0855 16.8815 31.677C18.4932 29.699 20.0511 28.0271 20.0511 28.0271C20.8636 28.5746 21.7936 28.8168 22.7215 28.7224L22.7963 28.6569C22.773 28.9034 22.7822 29.1414 22.8267 29.427C21.6911 30.7216 22.0244 30.9485 19.7531 31.4262C17.4557 31.909 18.8053 32.7692 19.6867 32.9945C20.7553 33.2665 23.2271 33.6532 24.8974 31.269L24.831 31.541C25.276 31.9048 25.2463 34.1547 25.3099 35.7629C25.3734 37.3711 25.4794 38.8714 25.8 39.7562C26.1207 40.6411 26.5006 42.9182 29.4852 42.2671C31.9797 41.7214 33.8873 40.9369 34.0617 33.6354" fill="#231F20"/>
<path d="M34.0674 33.632C34.3047 31.6175 34.2333 31.3217 35.7045 31.6481L36.0788 31.6821C37.2102 31.7348 38.6898 31.4968 39.5592 31.0845C41.4307 30.1988 42.5396 28.7198 40.6948 29.1083C36.4856 29.994 36.196 28.5388 36.196 28.5388C40.6404 21.811 42.4986 13.2702 40.8954 11.1792C36.5131 5.47827 28.9492 8.17447 28.815 8.24502L28.7747 8.25352C27.9428 8.07757 27.0119 7.97302 25.9667 7.95602C24.0619 7.92372 22.6169 8.46602 21.5201 9.31347C21.5201 9.31347 8.0124 3.63547 8.64097 16.4535C8.77515 19.1803 12.4724 37.0855 16.8815 31.677C18.4932 29.699 20.0511 28.0271 20.0511 28.0271C20.8636 28.5746 21.7936 28.8168 22.7215 28.7224L22.7963 28.6569C22.773 28.9034 22.7822 29.1414 22.8267 29.427C21.6911 30.7216 22.0244 30.9485 19.7531 31.4262C17.4557 31.909 18.8053 32.7692 19.6867 32.9945C20.7553 33.2665 23.2271 33.6532 24.8974 31.269L24.831 31.541C25.276 31.9048 25.2463 34.1547 25.3099 35.7629C25.3734 37.3711 25.4794 38.8714 25.8 39.7562C26.1207 40.6411 26.5006 42.9182 29.4852 42.2671C31.9797 41.7214 33.8873 40.9369 34.0617 33.6354" stroke="#231F20" stroke-width="4.108"/>
</g>
<path id="Vector_4" d="M40.6941 29.1073C36.4849 29.993 36.1953 28.5378 36.1953 28.5378C40.6397 21.8092 42.4979 13.2684 40.8947 11.1783C36.5202 5.47734 28.9492 8.17439 28.815 8.24494L28.774 8.25344C27.9421 8.07749 27.0112 7.97294 25.9653 7.95594C24.0605 7.92449 22.6155 8.46594 21.5194 9.31339C21.5194 9.31339 8.011 3.63539 8.63956 16.4534C8.77375 19.1802 12.4703 37.0863 16.8801 31.6769C18.4917 29.6989 20.049 28.027 20.049 28.027C20.8615 28.5746 21.7915 28.8167 22.7194 28.7223L22.7949 28.6568C22.7716 28.9033 22.7822 29.1413 22.8253 29.4269C21.6896 30.7215 22.023 30.9484 19.7531 31.4261C17.455 31.9089 18.8053 32.7691 19.6867 32.9944C20.7553 33.2664 23.2272 33.6531 24.8974 31.2689L24.831 31.5409C25.276 31.9047 25.5889 33.9064 25.5373 35.7229C25.4857 37.5393 25.4497 38.7829 25.8007 39.757C26.1517 40.7311 26.5013 42.919 29.4874 42.2679C31.9818 41.7222 33.275 40.3095 33.4544 37.9516C33.5815 36.2754 33.871 36.5236 33.8887 35.025L34.1204 34.3161C34.3873 32.0441 34.1627 31.3114 35.6995 31.6522L36.0738 31.6862C37.2053 31.7389 38.6856 31.5009 39.5542 31.0887C41.4258 30.203 42.5346 28.724 40.6899 29.1124L40.6941 29.1073Z" fill="#417BA2"/>
<g id="Group">
<g id="Group_2">
<path id="Vector_5" d="M25.0846 30.4104C24.9688 34.6374 25.1129 38.8951 25.5189 39.9304C25.925 40.9657 26.793 42.9776 29.779 42.3248C32.2735 41.7791 33.1811 40.7234 33.5744 38.3927C33.8569 36.6783 34.4241 31.9157 34.4954 30.9408M21.5053 9.21647C21.5053 9.21647 7.98064 3.58097 8.61627 16.4049C8.75752 19.1317 12.447 37.0378 16.8582 31.6199C18.4699 29.642 19.9269 28.0907 19.9269 28.0907M28.815 8.18797C28.3468 8.33757 36.3345 5.20957 40.8735 11.1264C42.4767 13.2174 40.6193 21.7582 36.1741 28.4868" stroke="white" stroke-width="1.369" stroke-linecap="round" stroke-linejoin="round"/>
<path id="Vector_6" d="M36.1671 28.4859C36.1671 28.4859 36.4496 29.9394 40.6659 29.0537C42.5106 28.6653 41.4004 30.1443 39.5288 31.0308C37.9935 31.7576 34.5512 31.9437 34.4954 30.9399C34.3506 28.3474 36.3069 29.1353 36.1657 28.4859C36.0386 27.9011 35.1628 27.3274 34.5837 25.896C34.0787 24.6465 27.6554 15.0653 36.3649 16.4882C36.6841 16.4202 34.0928 8.03576 25.9406 7.89976C17.7884 7.76376 18.0588 18.1253 18.0588 18.1253" stroke="white" stroke-width="1.369" stroke-linecap="round" stroke-linejoin="bevel"/>
</g>
<g id="Group_3">
<path id="Vector_7" d="M22.8034 29.3725C21.6664 30.6671 22.0011 30.894 19.7298 31.3717C17.4317 31.8562 18.7821 32.7147 19.6635 32.94C20.732 33.212 23.2039 33.5987 24.8742 31.2128C25.3827 30.486 24.8713 29.3258 24.1729 29.0317C23.8353 28.8889 23.384 28.7104 22.8027 29.3717L22.8034 29.3725Z" stroke="white" stroke-width="1.369" stroke-linejoin="round"/>
<path id="Vector_8" d="M22.7293 29.3503C22.6149 28.5887 22.9744 27.6843 23.36 26.6235C23.9391 25.034 25.2753 23.4428 24.2075 18.3981C23.4108 14.6385 18.0652 17.6161 18.0631 18.1261C18.061 18.6361 18.3046 20.7101 17.9734 23.1241C17.5412 26.2759 19.9389 28.9406 22.6996 28.6686" stroke="white" stroke-width="1.369" stroke-linecap="round" stroke-linejoin="round"/>
</g>
</g>
<g id="Group_4">
<path id="Vector_9" d="M21.4573 18.0481C21.4333 18.2223 21.7701 18.6856 22.2087 18.7485C22.6473 18.8114 23.0209 18.4476 23.0456 18.2742C23.0703 18.1008 22.7335 17.9087 22.2942 17.8458C21.8549 17.7829 21.4806 17.8747 21.4573 18.0481Z" fill="white" stroke="white" stroke-width="0.456"/>
<path id="Vector_10" d="M34.799 17.6937C34.823 17.8679 34.4868 18.3312 34.0476 18.3941C33.6083 18.457 33.234 18.0932 33.2099 17.9181C33.1859 17.743 33.5228 17.5526 33.9614 17.4897C34.4 17.4268 34.7736 17.5177 34.7983 17.692L34.799 17.6937Z" fill="white" stroke="white" stroke-width="0.228"/>
</g>
<path id="Vector_11" d="M36.3669 16.4883C36.439 17.8542 36.0788 18.7833 36.0329 20.2385C35.9658 22.3516 37.0202 24.769 35.4312 27.1915" stroke="white" stroke-width="1.369" stroke-linecap="round" stroke-linejoin="round"/>
</g>
</svg>
