<svg width="120" height="60" viewBox="0 0 120 60" fill="none" xmlns="http://www.w3.org/2000/svg">
<g id="springio-ar21 1">
<path id="Vector" d="M39.17 13.265C38.6462 14.521 37.9756 15.7106 37.172 16.809C32.394 12.033 25.417 10.196 18.907 12.009C12.397 13.822 7.35701 18.966 5.71701 25.52C4.07701 32.074 6.08601 39 10.98 43.66L11.673 44.272C14.3182 46.4999 17.5281 47.9528 20.9477 48.47C24.3672 48.9872 27.8632 48.5485 31.049 47.2025C34.2348 45.8565 36.9862 43.6557 38.999 40.8433C41.0118 38.0309 42.2076 34.7166 42.454 31.267C42.964 26.492 41.564 20.45 39.17 13.267V13.265ZM13.647 43.767C13.239 44.271 12.567 44.48 11.945 44.297C11.323 44.114 10.873 43.572 10.805 42.927C10.737 42.282 11.065 41.66 11.635 41.35C12.205 41.04 12.905 41.106 13.409 41.514C14.096 42.071 14.202 43.08 13.645 43.768L13.647 43.767ZM39.091 38.151C34.463 44.316 24.581 42.237 18.244 42.535C18.244 42.535 17.121 42.601 15.99 42.787C15.99 42.787 16.416 42.605 16.962 42.4C21.412 40.85 23.515 40.553 26.218 39.162C31.308 36.575 36.341 30.909 37.388 25.019C35.452 30.685 29.573 35.557 24.221 37.536C20.553 38.888 13.927 40.204 13.927 40.204L13.66 40.061C9.15001 37.87 9.01001 28.106 17.2 24.957C20.8 23.574 24.225 24.333 28.102 23.407C32.242 22.423 37.032 19.321 38.982 15.274C41.162 21.749 43.788 31.874 39.079 38.154L39.091 38.151Z" fill="#68BD45"/>
<g id="Group">
<path id="Vector_2" d="M46.4568 36.1076C46.2708 35.9956 46.1187 35.8354 46.0163 35.644C45.914 35.4526 45.8653 35.2371 45.8755 35.0202C45.8735 34.853 45.9051 34.6871 45.9683 34.5322C46.0315 34.3774 46.1251 34.2368 46.2435 34.1186C46.3619 34.0005 46.5027 33.9073 46.6577 33.8444C46.8127 33.7816 46.9787 33.7504 47.1459 33.7527C47.3815 33.754 47.6128 33.8161 47.8173 33.9329C48.9722 34.7491 50.3413 35.2081 51.7547 35.253C53.101 35.253 53.8769 34.6711 53.8769 33.7698V33.7201C53.8769 32.6591 52.4222 32.2951 50.8209 31.8034C48.8031 31.2215 46.5492 30.4046 46.5492 27.7907V27.7382C46.5492 25.1471 48.6981 23.5738 51.417 23.5738C52.9102 23.6016 54.3754 23.9843 55.6915 24.6902C55.9155 24.7989 56.1045 24.9683 56.2371 25.179C56.3697 25.3898 56.4406 25.6335 56.4417 25.8825C56.4429 26.0516 56.4101 26.2193 56.3452 26.3755C56.2803 26.5317 56.1847 26.6733 56.064 26.7918C55.9433 26.9103 55.8 27.0034 55.6426 27.0654C55.4852 27.1274 55.317 27.1572 55.1479 27.1529C54.9311 27.1568 54.7172 27.1026 54.5284 26.996C53.4148 26.4141 52.275 26.0627 51.3297 26.0627C50.1146 26.0627 49.4129 26.6446 49.4129 27.409V27.4615C49.4129 28.4712 50.8962 28.8865 52.4952 29.404C54.4901 30.0315 56.7406 30.9305 56.7406 33.3904V33.4429C56.7406 36.3158 54.5135 37.7385 51.6663 37.7385C49.8057 37.7257 47.9913 37.1576 46.4556 36.107L46.4568 36.1076ZM57.9232 25.1568C57.919 24.9507 57.9559 24.7459 58.032 24.5543C58.108 24.3627 58.2215 24.1882 58.3659 24.0411C58.5103 23.894 58.6826 23.7772 58.8728 23.6977C59.0629 23.6181 59.2671 23.5773 59.4732 23.5778C59.6809 23.5765 59.8868 23.6166 60.0789 23.6955C60.271 23.7744 60.4456 23.8907 60.5925 24.0376C60.7393 24.1844 60.8556 24.359 60.9345 24.5511C61.0134 24.7432 61.0535 24.9491 61.0522 25.1568V26.1049C62.062 24.6799 63.4859 23.5401 65.7044 23.5401C68.9031 23.5401 72.0463 26.0758 72.0463 30.635V30.6875C72.0463 35.2171 68.9373 37.7796 65.7044 37.7796C63.4225 37.7796 61.9964 36.6398 61.0522 35.3722V40.1984C61.0522 40.6141 60.8871 41.0128 60.5932 41.3067C60.2992 41.6006 59.9006 41.7658 59.4849 41.7658C59.0692 41.7658 58.6705 41.6006 58.3766 41.3067C58.0826 41.0128 57.9175 40.6141 57.9175 40.1984L57.9232 25.1568ZM68.8762 30.6818V30.6293C68.8762 27.9892 67.0878 26.2675 64.9651 26.2675C62.8424 26.2675 60.9787 28.036 60.9787 30.6293V30.6818C60.9787 33.2986 62.8424 35.0436 64.9651 35.0436C67.0878 35.0436 68.8762 33.3744 68.8762 30.6738V30.6818ZM73.246 25.1597C73.2418 24.9533 73.2788 24.7483 73.355 24.5565C73.4312 24.3647 73.545 24.1901 73.6897 24.0429C73.8344 23.8958 74.0071 23.7791 74.1976 23.6997C74.3881 23.6203 74.5925 23.5798 74.7989 23.5806C75.0067 23.579 75.2127 23.6188 75.405 23.6976C75.5973 23.7763 75.772 23.8926 75.919 24.0395C76.0659 24.1865 76.1822 24.3612 76.261 24.5535C76.3398 24.7458 76.3795 24.9519 76.3779 25.1597V25.9127C76.5348 24.7489 78.451 23.5863 79.8207 23.5863C80.0284 23.5717 80.2368 23.6018 80.4318 23.6746C80.6269 23.7475 80.804 23.8614 80.9512 24.0086C81.0984 24.1558 81.2123 24.333 81.2852 24.528C81.3581 24.723 81.3882 24.9314 81.3735 25.1391C81.3857 25.498 81.2662 25.849 81.0376 26.1258C80.8089 26.4027 80.4869 26.5864 80.1322 26.6423C77.9051 27.0291 76.3785 28.9687 76.3785 31.6756V36.1823C76.3774 36.3881 76.3356 36.5917 76.2555 36.7813C76.1754 36.9709 76.0587 37.1428 75.9119 37.2871C75.7652 37.4314 75.5913 37.5453 75.4004 37.6222C75.2095 37.6991 75.0052 37.7374 74.7994 37.7351C74.5951 37.7366 74.3925 37.6975 74.2034 37.62C74.0143 37.5425 73.8425 37.4282 73.698 37.2837C73.5535 37.1392 73.4392 36.9674 73.3617 36.7783C73.2842 36.5892 73.2451 36.3866 73.2466 36.1823L73.246 25.1597ZM82.5595 25.1665C82.5557 24.9603 82.593 24.7554 82.6693 24.5638C82.7457 24.3722 82.8595 24.1977 83.0041 24.0506C83.1487 23.9036 83.3212 23.7869 83.5115 23.7073C83.7018 23.6278 83.9061 23.587 84.1124 23.5875C84.3201 23.5862 84.5259 23.6263 84.7181 23.7052C84.9102 23.7841 85.0848 23.9004 85.2316 24.0472C85.3785 24.1941 85.4948 24.3687 85.5737 24.5608C85.6526 24.7529 85.6926 24.9588 85.6914 25.1665V36.192C85.6759 36.597 85.5042 36.9802 85.2122 37.2612C84.9202 37.5423 84.5307 37.6993 84.1255 37.6993C83.7202 37.6993 83.3307 37.5423 83.0387 37.2612C82.7467 36.9802 82.575 36.597 82.5595 36.192V25.1665ZM87.2733 25.1722C87.2691 24.9659 87.3061 24.7608 87.3823 24.569C87.4585 24.3772 87.5723 24.2026 87.717 24.0555C87.8617 23.9083 88.0344 23.7916 88.2249 23.7122C88.4153 23.6328 88.6198 23.5924 88.8261 23.5932C89.0339 23.5919 89.2397 23.632 89.4319 23.7109C89.624 23.7898 89.7985 23.9061 89.9454 24.053C90.0923 24.1998 90.2085 24.3744 90.2875 24.5665C90.3664 24.7586 90.4064 24.9645 90.4052 25.1722V25.8146C90.8611 25.103 91.4952 24.5231 92.2446 24.1324C92.9939 23.7417 93.8325 23.5538 94.6769 23.5875C97.7563 23.5875 99.5447 25.6583 99.5447 28.8215V36.184C99.5483 36.3889 99.5105 36.5924 99.4337 36.7824C99.357 36.9724 99.2427 37.145 99.0978 37.2899C98.9529 37.4348 98.7803 37.5491 98.5903 37.6259C98.4003 37.7026 98.1968 37.7404 97.9919 37.7368C97.7847 37.7422 97.5786 37.7061 97.3856 37.6304C97.1927 37.5548 97.0169 37.4412 96.8686 37.2964C96.7203 37.1516 96.6026 36.9786 96.5223 36.7875C96.4421 36.5965 96.401 36.3912 96.4014 36.184V29.7856C96.4014 27.6635 95.3403 26.4444 93.4761 26.4444C91.6642 26.4444 90.3966 27.7148 90.3966 29.8375V36.1823C90.3812 36.5873 90.2094 36.9705 89.9175 37.2515C89.6255 37.5326 89.236 37.6896 88.8307 37.6896C88.4254 37.6896 88.0359 37.5326 87.744 37.2515C87.452 36.9705 87.2802 36.5873 87.2648 36.1823L87.2733 25.1722ZM113.315 23.5521C113.108 23.5509 112.902 23.5909 112.71 23.6698C112.517 23.7487 112.343 23.865 112.196 24.0119C112.049 24.1588 111.933 24.3333 111.854 24.5254C111.775 24.7176 111.735 24.9234 111.736 25.1311V26.061C110.726 24.636 109.303 23.4939 107.083 23.4939C103.885 23.4939 100.739 26.0296 100.739 30.586V30.6385C100.73 35.172 103.839 37.7305 107.075 37.7305C109.34 37.7305 110.762 36.605 111.727 35.3431C111.57 37.8058 110.064 39.1059 107.42 39.1059C105.947 39.1207 104.497 38.7467 103.215 38.0215C103.039 37.9348 102.845 37.8911 102.648 37.8937C102.303 37.8936 101.971 38.0286 101.724 38.2698C101.477 38.511 101.333 38.8394 101.325 39.1847C101.319 39.4579 101.401 39.726 101.558 39.9498C101.714 40.1737 101.939 40.3417 102.197 40.4294C103.839 41.2399 105.647 41.657 107.478 41.648C109.938 41.648 111.853 41.0661 113.099 39.8111C114.235 38.6713 114.843 36.9587 114.843 34.6586V25.1249C114.847 24.9206 114.81 24.7176 114.735 24.5275C114.661 24.3374 114.549 24.164 114.407 24.0173C114.265 23.8705 114.095 23.7533 113.907 23.6724C113.72 23.5915 113.518 23.5485 113.314 23.5458L113.315 23.5521ZM107.826 35.0231C105.677 35.0231 103.918 33.3402 103.918 30.6476V30.5951C103.918 27.955 105.704 26.2333 107.826 26.2333C109.948 26.2333 111.812 27.9806 111.812 30.5951V30.6476C111.812 33.2615 109.951 35.0231 107.826 35.0231Z" fill="#68BD45"/>
<path id="Vector_3" d="M84.1272 21.3918C84.9993 21.3918 85.7062 20.6848 85.7062 19.8127C85.7062 18.9406 84.9993 18.2336 84.1272 18.2336C83.2551 18.2336 82.5481 18.9406 82.5481 19.8127C82.5481 20.6848 83.2551 21.3918 84.1272 21.3918Z" fill="#68BD45"/>
</g>
</g>
</svg>
